<svg width="60" height="50" viewBox="0 0 60 50" fill="none" xmlns="http://www.w3.org/2000/svg" xmlns:xlink="http://www.w3.org/1999/xlink">
<path d="M28.53,4.489C24.927,4.522 21.985,7.464 21.985,11.101L21.985,19.034C21.985,26.505 15.903,32.587 8.432,32.587L8.432,18.042C8.432,14.307 9.953,10.902 12.399,8.456C14.845,6.01 18.25,4.489 21.985,4.489L28.431,4.489C28.464,4.489 28.497,4.489 28.53,4.489Z" transform="rotate(-78.725 18.481 18.538)" fill="#00306E" stroke="#FFFFFF" stroke-width="2" stroke-miterlimit="10"/>
<path d="M13.85,13.849L13.85,7.569C13.85,3.933 16.758,0.991 20.395,0.958C23.932,0.991 26.741,3.867 26.741,7.404C26.741,9.189 26.014,10.808 24.857,11.965C23.7,13.122 22.08,13.849 20.295,13.849L18.808,13.849Z" transform="rotate(-78.725 20.295 7.404)" fill="#00306E" stroke="#FFFFFF" stroke-width="2" stroke-miterlimit="10"/>
<path d="M31.254,43.214C34.857,43.181 37.799,40.239 37.799,36.603L37.799,28.67C37.799,21.199 43.881,15.117 51.352,15.117L51.352,29.662C51.352,33.397 49.831,36.802 47.385,39.248C44.939,41.694 41.534,43.214 37.799,43.214L31.353,43.214C31.287,43.214 31.254,43.214 31.254,43.214Z" transform="rotate(-78.725 41.303 29.166)" fill="#00306E" stroke="#FFFFFF" stroke-width="2" stroke-miterlimit="10"/>
<path d="M45.908,33.873L45.908,40.154C45.908,43.79 42.999,46.732 39.362,46.765C35.826,46.732 33.016,43.856 33.016,40.319C33.016,38.534 33.743,36.914 34.9,35.757C36.057,34.6 37.677,33.873 39.462,33.873L40.982,33.873Z" transform="rotate(-78.725 39.462 40.319)" fill="#00306E" stroke="#FFFFFF" stroke-width="2" stroke-miterlimit="10"/>
</svg>
