<svg width="24" height="12" viewBox="0 0 24 12" fill="none" xmlns="http://www.w3.org/2000/svg" xmlns:xlink="http://www.w3.org/1999/xlink">
<path d="M3.649,0.454C2.795,-0.247 1.535,-0.122 0.835,0.732C0.134,1.586 0.259,2.846 1.113,3.546L3.649,0.454ZM12.133,10L10.865,11.546C11.602,12.151 12.664,12.151 13.402,11.546L12.133,10ZM23.154,3.546C24.008,2.846 24.133,1.586 23.432,0.732C22.732,-0.122 21.471,-0.247 20.617,0.454L23.154,3.546ZM1.113,3.546L10.865,11.546L13.402,8.454L3.649,0.454L1.113,3.546ZM13.402,11.546L23.154,3.546L20.617,0.454L10.865,8.454L13.402,11.546Z" fill="#151D48"/>
</svg>
